<svg xmlns="http://www.w3.org/2000/svg" width="500" height="500" viewBox="0 0 500 500"><rect width="100%" height="100%" fill="#374151"/><path fill="#f3f4f6" d="M153.6 282.21h-49.06v-6.06q1.53-.09 2.77-.3 1.23-.2 2.06-.98.83-.79 1.28-2.36.45-1.58.45-4.36v-35.26q0-1.26.02-2.47.03-1.22.07-2.32.05-1.1.11-2 .07-.9.16-1.48l-6.92.27v-7.1h26.42v6.07q-1.58.09-2.79.31-1.21.23-2.04.99t-1.28 2.34q-.45 1.57-.45 4.35v35.27q0 1.25-.02 2.44-.03 1.19-.07 2.27-.05 1.08-.11 1.96-.07.87-.16 1.46l12.35-.05q5.44 0 8.54-3.75t3.1-11.3h6.11zm43.89-33.29q0 2.92.4 6.11t1.3 6.31q.9 3.13 2.34 5.96t3.48 4.96 4.78 3.41q2.75 1.28 6.2 1.28 3.19 0 5.66-1.1t4.34-2.98q1.86-1.89 3.17-4.41 1.3-2.51 2.11-5.32t1.17-5.79q.35-2.99.35-5.78 0-6.2-1.07-11.43-1.08-5.23-3.33-9.03-2.24-3.79-5.66-5.93-3.41-2.13-8.08-2.13-3.28 0-5.82 1.1t-4.45 3.03-3.21 4.47-2.13 5.41q-.83 2.88-1.19 5.91t-.36 5.95M183.02 250q0-3.86.88-7.86.87-4 2.65-7.73 1.77-3.73 4.45-7.03 2.67-3.3 6.26-5.77 3.6-2.47 8.11-3.89 4.51-1.41 9.95-1.41 5.57 0 10.13 1.44 4.56 1.43 8.11 3.91 3.55 2.47 6.13 5.77t4.29 7.03 2.52 7.72q.8 4 .8 7.82t-.87 7.79q-.88 3.98-2.65 7.71-1.78 3.73-4.45 7.05-2.67 3.33-6.27 5.8-3.59 2.47-8.08 3.9-4.49 1.44-9.93 1.44-5.84 0-10.47-1.39-4.62-1.39-8.19-3.8-3.58-2.4-6.11-5.66-2.54-3.25-4.14-7-1.59-3.76-2.35-7.8-.77-4.04-.77-8.04m116.12-18.15v14.02h6.7l7.01-12.04q.8-1.39 1.66-2.83.85-1.44 1.7-2.7.86-1.25 1.6-2.22t1.37-1.46v-.09l-5.84.36v-7.1h22.51v6.07q-1.58.09-3.26.42-1.69.34-3.51 1.31-1.81.96-3.7 2.8-1.89 1.85-3.77 4.9l-8.81 14.11v.13q1.89 1.12 3.28 2.45 1.39 1.32 2.47 2.85l9.48 13.34q1.39 1.98 2.87 3.75 1.49 1.78 3.01 3.13 1.53 1.34 3.08 2.17 1.55.84 3.12.93v6.06h-14.19q-.59-.04-1.71-1.01t-2.42-2.36q-1.31-1.39-2.61-3.01t-2.25-2.96l-9.07-13.26q-.63-.85-1.3-1.79-.68-.95-1.4-1.82-.71-.88-1.39-1.62-.67-.74-1.3-1.19l-3.33.05v13.88q0 1.25-.02 2.47-.02 1.21-.07 2.31-.04 1.1-.11 2-.06.9-.15 1.48l6.91-.27v7.1h-26.41v-6.06q1.53-.09 2.76-.3 1.24-.2 2.07-.98.83-.79 1.28-2.36.45-1.58.45-4.36v-35.26q0-1.26.02-2.47.02-1.22.07-2.32.04-1.1.11-2t.16-1.48l-6.92.27v-7.1h26.41v6.07q-1.57.09-2.78.31-1.21.23-2.05.99-.83.76-1.28 2.34-.45 1.57-.45 4.35m89.76 0v35.27q0 1.25-.02 2.47-.03 1.21-.07 2.31-.05 1.1-.11 2-.07.9-.16 1.48l6.92-.27v7.1h-26.42v-6.06q1.53-.09 2.77-.3 1.23-.2 2.06-.98.83-.79 1.28-2.36.45-1.58.45-4.36v-35.26q0-1.26.02-2.47.03-1.22.07-2.32.05-1.1.11-2 .07-.9.16-1.48l-6.92.27v-7.1h26.42v6.07q-1.58.09-2.79.31-1.21.23-2.04.99t-1.28 2.34q-.45 1.57-.45 4.35"/></svg>