<svg xmlns="http://www.w3.org/2000/svg" width="100" height="100" viewBox="0 0 100 100"><rect width="100%" height="100%" fill="#374151"/><path fill="#f3f4f6" d="M19.605 47.72q0-1.18.27-2.4.27-1.21.81-2.35.54-1.13 1.35-2.14.81-1 1.91-1.75 1.09-.76 2.46-1.19 1.38-.43 3.03-.43 1.7 0 3.09.44 1.38.44 2.46 1.19t1.87 1.76q.79 1 1.31 2.14.52 1.13.76 2.35.25 1.22.25 2.38 0 1.39-.4 2.85-.4 1.45-1.18 2.76-.79 1.31-1.98 2.36-1.19 1.06-2.76 1.65v.03q.6 0 1.1.05.5.06.97.22.46.17.93.48.47.32 1.03.82.96.9 1.54 1.46.58.55.96.85.38.29.68.39.31.1.78.1v1.88h-1.21q-.97 0-1.62-.04t-1.16-.19q-.51-.16-.98-.46-.48-.31-1.06-.83-.89-.78-1.58-1.52-.68-.75-1.32-1.33-.63-.58-1.3-.93t-1.53-.35q-1.72 0-3.1-.42-1.37-.43-2.43-1.16-1.05-.74-1.79-1.74-.75-1-1.23-2.13-.48-1.14-.7-2.37-.23-1.23-.23-2.43m4.41-.33q0 .89.12 1.86t.39 1.92q.28.95.72 1.81.43.86 1.06 1.51.62.65 1.45 1.04.84.39 1.89.39.97 0 1.72-.33.75-.34 1.32-.91.57-.58.96-1.34.4-.77.65-1.62.24-.86.35-1.77t.11-1.75q0-1.89-.33-3.48-.32-1.6-1.01-2.75-.68-1.16-1.72-1.81t-2.46-.65q-1 0-1.77.34-.77.33-1.36.92-.58.59-.97 1.36-.4.77-.65 1.65-.26.87-.37 1.8-.1.92-.1 1.81m26.97-4.32q.49 0 .94.14.44.13.78.41.33.28.53.72t.2 1.05q0 .33-.11.68t-.34.64q-.24.28-.61.47-.38.18-.91.18-.29 0-.59-.07-.3-.08-.55-.26-.26-.19-.44-.5-.19-.32-.23-.81-.42 0-.85.28t-.81.7q-.37.42-.66.89-.29.48-.41.87v4.56q0 .21-.01.49 0 .29-.02.62-.01.33-.03.68-.02.34-.05.66l1.82-.08v2.13h-7.34V55.7q.58 0 .92-.18.33-.17.5-.5.16-.33.2-.79t.04-1.02V48.5q0-.51.03-1.13.02-.62.08-1.25l-1.96.08v-2.12q.97 0 1.71-.08.75-.08 1.27-.21.53-.12.85-.26.32-.15.47-.28h1.38l.13 2.4h.04q.27-.37.66-.82t.9-.84 1.13-.65q.62-.27 1.34-.27m10.4 1.97q-.61 0-1.1.23-.48.23-.84.64-.35.41-.58.99-.22.58-.32 1.28h5.15q-.02-.86-.2-1.46t-.49-.98q-.3-.37-.71-.54-.41-.16-.91-.16m6.18 4.95-9.2.16q0 1.15.21 2.13.22.97.68 1.68.47.7 1.22 1.11.75.4 1.84.4.43 0 .95-.11t1.06-.36q.54-.24 1.08-.65.55-.4 1.03-.99l1.26 1.19q-.75 1.08-1.6 1.75t-1.7 1.04q-.86.37-1.69.5-.82.13-1.53.13-1.55 0-2.82-.52t-2.19-1.49q-.91-.97-1.41-2.34-.5-1.36-.5-3.07 0-1.48.5-2.83.5-1.34 1.41-2.38.92-1.04 2.21-1.66 1.29-.61 2.88-.61.78 0 1.55.14.77.13 1.48.45.7.32 1.31.84t1.04 1.29q.44.77.69 1.8.26 1.04.24 2.4m10.8-4.31-3.11.07.04 7.22q0 .2-.01.5l-.02.63q-.01.34-.03.7-.02.35-.05.67l1.95-.08v2.13h-7.47V55.7q.58 0 .92-.18.33-.17.5-.5.16-.33.2-.79t.04-1.02v-7.39l-2.02.04v-2.34h2.02v-.82q0-1.7.39-2.89.38-1.2 1.1-1.96.71-.76 1.73-1.11 1.02-.36 2.28-.36.98 0 1.67.22.68.22 1.11.58.42.35.6.79.19.44.19.87 0 .39-.12.73-.11.34-.35.6-.23.26-.57.41t-.79.15q-.78 0-1.21-.45t-.43-1.16q0-.23.06-.55-.13-.15-.32-.19-.2-.04-.3-.04-.36.01-.58.18-.22.16-.34.41-.12.24-.17.54t-.05.6l.01 3.45h3.13z"/></svg>